<svg width="58" height="78" viewBox="0 0 58 78" fill="none" xmlns="http://www.w3.org/2000/svg">
<g id="Group">
<g id="Group 29">
<g id="Group_2" opacity="0.8">
<path id="Vector" d="M36.311 46.6961C35.7489 45.1954 37.6013 44.0414 38.6983 45.0666L38.8494 45.2301L45.9074 53.7986C46.2037 54.1619 46.4202 54.5837 46.5426 55.0363C46.665 55.4889 46.6905 55.9623 46.6176 56.4255C46.5448 56.8887 46.375 57.3313 46.1196 57.7245C45.8641 58.1177 45.5286 58.4526 45.1349 58.7073C44.7413 58.9621 44.2984 59.131 43.835 59.2031C43.3717 59.2752 42.8984 59.2487 42.446 59.1255C41.9935 59.0024 41.5722 58.7852 41.2093 58.4881C40.8465 58.1911 40.5504 57.821 40.3403 57.4018L40.2065 57.0898L36.311 46.6961ZM37.9009 38.0632L38.1114 38.1276L48.5077 42.0231C48.9463 42.1884 49.3451 42.4443 49.6782 42.7741C50.0112 43.1039 50.2711 43.5002 50.4407 43.9372C50.6103 44.3741 50.686 44.8419 50.6627 45.31C50.6394 45.7782 50.5178 46.2362 50.3056 46.6541C50.0935 47.0721 49.7956 47.4407 49.4315 47.7358C49.0674 48.031 48.6451 48.2461 48.1923 48.3671C47.7395 48.4881 47.2662 48.5123 46.8034 48.4382C46.3406 48.3641 45.8986 48.1932 45.5062 47.9368L45.2164 47.7214L36.6478 40.666C35.4096 39.6506 36.4373 37.724 37.9009 38.0657V38.0632ZM58 36.2901C58 38.244 56.3408 39.7546 54.4339 39.6184L54.1144 39.5813L43.1659 37.7561C41.6008 37.4961 41.5141 35.3589 42.9034 34.8884L43.1659 34.824L54.1144 32.9989C54.5927 32.919 55.0826 32.9443 55.5501 33.0731C56.0175 33.2018 56.4513 33.4309 56.8212 33.7445C57.1911 34.058 57.4881 34.4484 57.6917 34.8885C57.8953 35.3285 58.0005 35.8077 58 36.2926V36.2901ZM50.2239 25.7652C51.1971 27.4492 50.521 29.5814 48.8172 30.4209L48.5052 30.5571L38.1089 34.4526C36.6107 35.0147 35.4591 33.1623 36.4819 32.0653L36.6429 31.9142L45.214 24.8563C45.5881 24.5483 46.0248 24.3255 46.4938 24.2035C46.9628 24.0814 47.4528 24.063 47.9296 24.1495C48.4064 24.236 48.8587 24.4253 49.2549 24.7044C49.6511 24.9834 49.9818 25.3454 50.2239 25.7652ZM44.9985 13.7718C46.6776 14.7425 47.1605 16.9119 46.1203 18.4919L45.9049 18.7816L38.8494 27.3501C37.8341 28.5883 35.9074 27.5606 36.2491 26.097L36.311 25.8865L40.2065 15.488C40.3765 15.0342 40.6432 14.623 40.9882 14.2828C41.3332 13.9426 41.7482 13.6817 42.2042 13.5181C42.6603 13.3545 43.1465 13.2923 43.629 13.3357C44.1116 13.379 44.5789 13.527 44.9985 13.7693V13.7718ZM25.1446 45.2301C26.16 43.9918 28.0866 45.0196 27.7449 46.4831L27.683 46.6936L23.7875 57.0922C23.6222 57.5308 23.3662 57.9296 23.0364 58.2627C22.7066 58.5958 22.3103 58.8556 21.8734 59.0252C21.4364 59.1949 20.9686 59.2705 20.5005 59.2472C20.0323 59.224 19.5743 59.1023 19.1564 58.8902C18.7384 58.678 18.3698 58.3802 18.0747 58.0161C17.7795 57.6519 17.5644 57.2297 17.4434 56.7769C17.3224 56.324 17.2981 55.8508 17.3723 55.388C17.4464 54.9252 17.6173 54.4831 17.8737 54.0908L18.0866 53.801L25.1446 45.2301ZM27.5096 40.5149L27.3462 40.666L18.7776 47.7238C18.4142 48.0202 17.9925 48.2366 17.5398 48.359C17.0872 48.4814 16.6138 48.507 16.1506 48.4341C15.6874 48.3612 15.2448 48.1915 14.8516 47.936C14.4584 47.6805 14.1235 47.345 13.8687 46.9514C13.6139 46.5578 13.445 46.1148 13.373 45.6515C13.3009 45.1882 13.3273 44.7149 13.4505 44.2625C13.5737 43.8101 13.7909 43.3887 14.0879 43.0259C14.3849 42.663 14.7551 42.3669 15.1743 42.1568L15.4863 42.0231L25.8826 38.1276C27.3809 37.5655 28.5324 39.4178 27.5096 40.5149ZM9.56013 32.9617L9.8796 32.9989L20.8281 34.824C22.3932 35.0865 22.4799 37.2212 21.0906 37.6918L20.8281 37.7561L9.8796 39.5813C9.41548 39.658 8.9404 39.6356 8.48553 39.5157C8.03065 39.3958 7.60629 39.1811 7.24028 38.8856C6.87428 38.5901 6.57491 38.2205 6.36183 37.8011C6.14876 37.3817 6.02679 36.922 6.00394 36.4522C5.98109 35.9823 6.05787 35.513 6.22924 35.0749C6.40062 34.6368 6.66271 34.2399 6.99831 33.9103C7.33391 33.5807 7.73544 33.3258 8.17653 33.1623C8.61761 32.9988 9.08829 32.9305 9.55766 32.9617H9.56013ZM18.4878 24.6434L18.7776 24.8588L27.3462 31.9142C28.5844 32.9296 27.5567 34.8562 26.0931 34.5145L25.8826 34.4526L15.4863 30.5571C15.0477 30.3918 14.6489 30.1359 14.3158 29.8061C13.9828 29.4763 13.723 29.08 13.5533 28.643C13.3837 28.2061 13.308 27.7383 13.3313 27.2701C13.3546 26.802 13.4762 26.344 13.6884 25.926C13.9005 25.5081 14.1984 25.1395 14.5625 24.8444C14.9266 24.5492 15.3489 24.3341 15.8017 24.2131C16.2545 24.0921 16.7278 24.0678 17.1906 24.142C17.6534 24.2161 18.0955 24.387 18.4878 24.6434ZM23.6538 15.1784L23.7875 15.4904L27.683 25.8865C28.2451 27.3873 26.3927 28.5363 25.2957 27.5136L25.1446 27.3526L18.0866 18.7816C17.7903 18.4183 17.5738 17.9965 17.4514 17.5439C17.3291 17.0912 17.3035 16.6179 17.3764 16.1547C17.4492 15.6915 17.619 15.2489 17.8745 14.8557C18.1299 14.4625 18.4654 14.1276 18.8591 13.8728C19.2527 13.6181 19.6957 13.4491 20.159 13.3771C20.6223 13.305 21.0956 13.3314 21.548 13.4546C22.0005 13.5778 22.4218 13.795 22.7847 14.092C23.1475 14.389 23.4436 14.7592 23.6538 15.1784ZM31.997 15.2403C29.9366 15.2403 28.3665 17.0902 28.7058 19.1258L30.5309 30.0742C30.8083 31.731 33.1857 31.731 33.4631 30.0742L35.2882 19.1258C35.3681 18.6478 35.3429 18.1581 35.2142 17.6908C35.0856 17.2235 34.8567 16.7899 34.5434 16.4201C34.2302 16.0502 33.8401 15.7531 33.4003 15.5494C32.9606 15.3456 32.4817 15.2402 31.997 15.2403ZM33.4631 42.506C33.1857 40.8492 30.8083 40.8492 30.5309 42.506L28.7058 53.4543C28.6269 53.9319 28.6529 54.4209 28.782 54.8874C28.9111 55.354 29.1402 55.7868 29.4533 56.1559C29.7665 56.525 30.1562 56.8215 30.5954 57.0249C31.0347 57.2283 31.513 57.3336 31.997 57.3336C32.4811 57.3336 32.9593 57.2283 33.3986 57.0249C33.8378 56.8215 34.2275 56.525 34.5407 56.1559C34.8538 55.7868 35.0829 55.354 35.212 54.8874C35.3411 54.4209 35.3671 53.9319 35.2882 53.4543L33.4631 42.506Z" fill="black"/>
</g>
<g id="1" filter="url(#filter0_d_112_169)">
<path d="M32.6165 57.4961C31.6417 57.4961 30.8409 57.2002 30.2142 56.6083C29.5875 55.9816 29.2741 55.2156 29.2741 54.3104V27.9889L30.0053 29.1378L26.1928 31.958C25.7054 32.341 25.0961 32.5325 24.365 32.5325C23.5294 32.5325 22.7982 32.2191 22.1715 31.5924C21.5448 30.9657 21.2314 30.2172 21.2314 29.3467C21.2314 28.2326 21.7711 27.3274 22.8504 26.631L30.3709 21.6174C30.719 21.3737 31.102 21.1996 31.5198 21.0952C31.9724 20.9907 32.3902 20.9385 32.7732 20.9385C33.7829 20.9385 34.5837 21.2518 35.1756 21.8785C35.7675 22.4704 36.0634 23.219 36.0634 24.1242V54.3104C36.0634 55.2156 35.7326 55.9816 35.0711 56.6083C34.4444 57.2002 33.6262 57.4961 32.6165 57.4961Z" fill="black"/>
<path d="M29.4143 57.4082L29.4257 57.4196L29.4375 57.4307C30.3021 58.2473 31.3937 58.6273 32.6165 58.6273C33.8622 58.6273 34.9756 58.2545 35.8478 57.4307L35.8491 57.4295C36.7344 56.5908 37.1946 55.5286 37.1946 54.3104V24.1242C37.1946 22.9514 36.8015 21.9107 35.9868 21.09C35.1457 20.2063 34.0305 19.8073 32.7732 19.8073C32.2888 19.8073 31.7845 19.8731 31.2654 19.9929L31.2554 19.9952L31.2454 19.9977C30.6998 20.1341 30.1934 20.3628 29.7334 20.6828L22.2297 25.6853C20.8898 26.5524 20.1002 27.7872 20.1002 29.3467C20.1002 30.5232 20.5371 31.5578 21.3716 32.3923C22.1962 33.2169 23.2097 33.6637 24.365 33.6637C25.2962 33.6637 26.1594 33.4172 26.8776 32.8585L28.1429 31.9225V54.3104C28.1429 55.5084 28.5704 56.5643 29.4143 57.4082Z" stroke="white" stroke-width="2.26241"/>
</g>
</g>
</g>
<defs>
<filter id="filter0_d_112_169" x="0.869467" y="0.576498" width="55.556" height="77.2816" filterUnits="userSpaceOnUse" color-interpolation-filters="sRGB">
<feFlood flood-opacity="0" result="BackgroundImageFix"/>
<feColorMatrix in="SourceAlpha" type="matrix" values="0 0 0 0 0 0 0 0 0 0 0 0 0 0 0 0 0 0 127 0" result="hardAlpha"/>
<feOffset/>
<feGaussianBlur stdDeviation="9.04964"/>
<feComposite in2="hardAlpha" operator="out"/>
<feColorMatrix type="matrix" values="0 0 0 0 1 0 0 0 0 1 0 0 0 0 1 0 0 0 1 0"/>
<feBlend mode="normal" in2="BackgroundImageFix" result="effect1_dropShadow_112_169"/>
<feBlend mode="normal" in="SourceGraphic" in2="effect1_dropShadow_112_169" result="shape"/>
</filter>
</defs>
</svg>
