<svg width="58" height="78" viewBox="0 0 58 78" fill="none" xmlns="http://www.w3.org/2000/svg">
<g id="Group 29">
<g id="Group" opacity="0.8">
<path id="Vector" d="M36.311 46.3738C35.7489 44.8731 37.6013 43.7191 38.6983 44.7443L38.8494 44.9078L45.9074 53.4763C46.2037 53.8396 46.4202 54.2614 46.5426 54.714C46.665 55.1667 46.6905 55.64 46.6176 56.1032C46.5448 56.5664 46.375 57.009 46.1196 57.4022C45.8641 57.7954 45.5286 58.1303 45.1349 58.3851C44.7413 58.6399 44.2984 58.8088 43.835 58.8808C43.3717 58.9529 42.8984 58.9265 42.446 58.8033C41.9935 58.6801 41.5722 58.4629 41.2093 58.1659C40.8465 57.8689 40.5504 57.4987 40.3403 57.0795L40.2065 56.7675L36.311 46.3738ZM37.9009 37.741L38.1114 37.8053L48.5077 41.7008C48.9463 41.8661 49.3451 42.122 49.6782 42.4518C50.0112 42.7816 50.2711 43.1779 50.4407 43.6149C50.6103 44.0518 50.686 44.5196 50.6627 44.9878C50.6394 45.4559 50.5178 45.9139 50.3056 46.3319C50.0935 46.7498 49.7956 47.1184 49.4315 47.4136C49.0674 47.7087 48.6451 47.9238 48.1923 48.0448C47.7395 48.1658 47.2662 48.1901 46.8034 48.1159C46.3406 48.0418 45.8986 47.871 45.5062 47.6145L45.2164 47.3991L36.6478 40.3437C35.4096 39.3284 36.4373 37.4017 37.9009 37.7434V37.741ZM58 35.9678C58 37.9217 56.3408 39.4324 54.4339 39.2962L54.1144 39.259L43.1659 37.4339C41.6008 37.1739 41.5141 35.0367 42.9034 34.5662L43.1659 34.5018L54.1144 32.6766C54.5927 32.5967 55.0826 32.622 55.5501 32.7508C56.0175 32.8796 56.4513 33.1087 56.8212 33.4222C57.1911 33.7357 57.4881 34.1261 57.6917 34.5662C57.8953 35.0063 58.0005 35.4854 58 35.9703V35.9678ZM50.2239 25.4429C51.1971 27.1269 50.521 29.2591 48.8172 30.0987L48.5052 30.2349L38.1089 34.1303C36.6107 34.6925 35.4591 32.8401 36.4819 31.743L36.6429 31.5919L45.214 24.5341C45.5881 24.2261 46.0248 24.0033 46.4938 23.8812C46.9628 23.7591 47.4528 23.7407 47.9296 23.8272C48.4064 23.9137 48.8587 24.1031 49.2549 24.3821C49.6511 24.6611 49.9818 25.0231 50.2239 25.4429ZM44.9985 13.4495C46.6776 14.4203 47.1605 16.5896 46.1203 18.1696L45.9049 18.4594L38.8494 27.0279C37.8341 28.2661 35.9074 27.2384 36.2491 25.7748L36.311 25.5643L40.2065 15.1657C40.3765 14.712 40.6432 14.3007 40.9882 13.9605C41.3332 13.6204 41.7482 13.3594 42.2042 13.1958C42.6603 13.0323 43.1465 12.97 43.629 13.0134C44.1116 13.0568 44.5789 13.2048 44.9985 13.447V13.4495ZM25.1446 44.9078C26.16 43.6696 28.0866 44.6973 27.7449 46.1609L27.683 46.3714L23.7875 56.77C23.6222 57.2086 23.3662 57.6074 23.0364 57.9404C22.7066 58.2735 22.3103 58.5333 21.8734 58.703C21.4364 58.8726 20.9686 58.9482 20.5005 58.925C20.0323 58.9017 19.5743 58.78 19.1564 58.5679C18.7384 58.3558 18.3698 58.0579 18.0747 57.6938C17.7795 57.3297 17.5644 56.9074 17.4434 56.4546C17.3224 56.0018 17.2981 55.5285 17.3723 55.0657C17.4464 54.6029 17.6173 54.1609 17.8737 53.7685L18.0866 53.4788L25.1446 44.9078ZM27.5096 40.1926L27.3462 40.3437L18.7776 47.4016C18.4142 47.6979 17.9925 47.9144 17.5398 48.0368C17.0872 48.1591 16.6138 48.1847 16.1506 48.1118C15.6874 48.039 15.2448 47.8692 14.8516 47.6138C14.4584 47.3583 14.1235 47.0228 13.8687 46.6291C13.6139 46.2355 13.445 45.7926 13.373 45.3293C13.3009 44.8659 13.3273 44.3926 13.4505 43.9402C13.5737 43.4878 13.7909 43.0664 14.0879 42.7036C14.3849 42.3408 14.7551 42.0446 15.1743 41.8345L15.4863 41.7008L25.8826 37.8053C27.3809 37.2432 28.5324 39.0956 27.5096 40.1926ZM9.56013 32.6395L9.8796 32.6766L20.8281 34.5018C22.3932 34.7643 22.4799 36.899 21.0906 37.3695L20.8281 37.4339L9.8796 39.259C9.41548 39.3357 8.9404 39.3134 8.48553 39.1935C8.03065 39.0736 7.60629 38.8588 7.24028 38.5633C6.87428 38.2678 6.57491 37.8982 6.36183 37.4788C6.14876 37.0595 6.02679 36.5998 6.00394 36.1299C5.98109 35.6601 6.05787 35.1907 6.22924 34.7526C6.40062 34.3145 6.66271 33.9177 6.99831 33.588C7.33391 33.2584 7.73544 33.0035 8.17653 32.84C8.61761 32.6765 9.08829 32.6082 9.55766 32.6395H9.56013ZM18.4878 24.3211L18.7776 24.5366L27.3462 31.5919C28.5844 32.6073 27.5567 34.534 26.0931 34.1922L25.8826 34.1303L15.4863 30.2349C15.0477 30.0695 14.6489 29.8136 14.3158 29.4838C13.9828 29.154 13.723 28.7577 13.5533 28.3208C13.3837 27.8838 13.308 27.416 13.3313 26.9479C13.3546 26.4797 13.4762 26.0218 13.6884 25.6038C13.9005 25.1858 14.1984 24.8172 14.5625 24.5221C14.9266 24.227 15.3489 24.0119 15.8017 23.8908C16.2545 23.7698 16.7278 23.7456 17.1906 23.8197C17.6534 23.8939 18.0955 24.0647 18.4878 24.3211ZM23.6538 14.8561L23.7875 15.1682L27.683 25.5643C28.2451 27.065 26.3927 28.2141 25.2957 27.1913L25.1446 27.0303L18.0866 18.4594C17.7903 18.096 17.5738 17.6742 17.4514 17.2216C17.3291 16.769 17.3035 16.2956 17.3764 15.8324C17.4492 15.3692 17.619 14.9266 17.8745 14.5334C18.1299 14.1402 18.4654 13.8053 18.8591 13.5506C19.2527 13.2958 19.6957 13.1269 20.159 13.0548C20.6223 12.9827 21.0956 13.0092 21.548 13.1324C22.0005 13.2556 22.4218 13.4727 22.7847 13.7698C23.1475 14.0668 23.4436 14.437 23.6538 14.8561ZM31.997 14.918C29.9366 14.918 28.3665 16.7679 28.7058 18.8036L30.5309 29.7519C30.8083 31.4087 33.1857 31.4087 33.4631 29.7519L35.2882 18.8036C35.3681 18.3255 35.3429 17.8358 35.2142 17.3686C35.0856 16.9013 34.8567 16.4676 34.5434 16.0978C34.2302 15.728 33.8401 15.4308 33.4003 15.2271C32.9606 15.0234 32.4817 14.9179 31.997 14.918ZM33.4631 42.1837C33.1857 40.527 30.8083 40.527 30.5309 42.1837L28.7058 53.1321C28.6269 53.6096 28.6529 54.0987 28.782 54.5652C28.9111 55.0317 29.1402 55.4645 29.4533 55.8336C29.7665 56.2027 30.1562 56.4993 30.5954 56.7026C31.0347 56.906 31.513 57.0113 31.997 57.0113C32.4811 57.0113 32.9593 56.906 33.3986 56.7026C33.8378 56.4993 34.2275 56.2027 34.5407 55.8336C34.8538 55.4645 35.0829 55.0317 35.212 54.5652C35.3411 54.0987 35.3671 53.6096 35.2882 53.1321L33.4631 42.1837Z" fill="black"/>
</g>
<g id="1" filter="url(#filter0_d_127_10)">
<path d="M32.6165 57.1738C31.6417 57.1738 30.8409 56.8779 30.2142 56.286C29.5875 55.6593 29.2741 54.8933 29.2741 53.9881V27.6666L30.0053 28.8156L26.1928 31.6357C25.7054 32.0187 25.0961 32.2102 24.365 32.2102C23.5294 32.2102 22.7982 31.8969 22.1715 31.2702C21.5448 30.6435 21.2314 29.8949 21.2314 29.0245C21.2314 27.9103 21.7711 27.0051 22.8504 26.3088L30.3709 21.2951C30.719 21.0514 31.102 20.8773 31.5198 20.7729C31.9724 20.6684 32.3902 20.6162 32.7732 20.6162C33.7829 20.6162 34.5837 20.9296 35.1756 21.5563C35.7675 22.1482 36.0634 22.8967 36.0634 23.8019V53.9881C36.0634 54.8933 35.7326 55.6593 35.0711 56.286C34.4444 56.8779 33.6262 57.1738 32.6165 57.1738Z" fill="black"/>
<path d="M29.4143 57.0859L29.4257 57.0973L29.4375 57.1084C30.3021 57.925 31.3937 58.3051 32.6165 58.3051C33.8622 58.3051 34.9756 57.9322 35.8478 57.1084L35.8491 57.1072C36.7344 56.2685 37.1946 55.2063 37.1946 53.9881V23.8019C37.1946 22.6291 36.8015 21.5884 35.9868 20.7678C35.1457 19.8841 34.0305 19.485 32.7732 19.485C32.2888 19.485 31.7845 19.5509 31.2654 19.6707L31.2554 19.673L31.2454 19.6755C30.6998 19.8119 30.1934 20.0406 29.7334 20.3606L22.2297 25.3631C20.8898 26.2302 20.1002 27.4649 20.1002 29.0245C20.1002 30.201 20.5371 31.2355 21.3716 32.07C22.1962 32.8946 23.2097 33.3414 24.365 33.3414C25.2961 33.3414 26.1594 33.095 26.8776 32.5363L28.1429 31.6003V53.9881C28.1429 55.1862 28.5704 56.242 29.4143 57.0859Z" stroke="white" stroke-width="2.26241"/>
</g>
</g>
<defs>
<filter id="filter0_d_127_10" x="0.869467" y="0.254232" width="55.556" height="77.2816" filterUnits="userSpaceOnUse" color-interpolation-filters="sRGB">
<feFlood flood-opacity="0" result="BackgroundImageFix"/>
<feColorMatrix in="SourceAlpha" type="matrix" values="0 0 0 0 0 0 0 0 0 0 0 0 0 0 0 0 0 0 127 0" result="hardAlpha"/>
<feOffset/>
<feGaussianBlur stdDeviation="9.04964"/>
<feComposite in2="hardAlpha" operator="out"/>
<feColorMatrix type="matrix" values="0 0 0 0 1 0 0 0 0 1 0 0 0 0 1 0 0 0 1 0"/>
<feBlend mode="normal" in2="BackgroundImageFix" result="effect1_dropShadow_127_10"/>
<feBlend mode="normal" in="SourceGraphic" in2="effect1_dropShadow_127_10" result="shape"/>
</filter>
</defs>
</svg>
