<svg width="52" height="47" viewBox="0 0 52 47" fill="none" xmlns="http://www.w3.org/2000/svg">
<g opacity="0.8">
<path d="M30.311 33.3738C29.7489 31.8731 31.6013 30.7191 32.6983 31.7443L32.8494 31.9078L39.9074 40.4763C40.2037 40.8396 40.4202 41.2614 40.5426 41.714C40.665 42.1667 40.6905 42.64 40.6176 43.1032C40.5448 43.5664 40.375 44.009 40.1196 44.4022C39.8641 44.7954 39.5286 45.1303 39.1349 45.3851C38.7413 45.6399 38.2984 45.8088 37.835 45.8808C37.3717 45.9529 36.8984 45.9265 36.446 45.8033C35.9935 45.6801 35.5722 45.4629 35.2093 45.1659C34.8465 44.8689 34.5504 44.4987 34.3403 44.0795L34.2065 43.7675L30.311 33.3738ZM31.9009 24.741L32.1114 24.8053L42.5077 28.7008C42.9463 28.8661 43.3451 29.122 43.6782 29.4518C44.0112 29.7816 44.2711 30.1779 44.4407 30.6149C44.6103 31.0518 44.686 31.5196 44.6627 31.9878C44.6394 32.4559 44.5178 32.9139 44.3056 33.3319C44.0935 33.7498 43.7956 34.1184 43.4315 34.4136C43.0674 34.7087 42.6451 34.9238 42.1923 35.0448C41.7395 35.1658 41.2662 35.1901 40.8034 35.1159C40.3406 35.0418 39.8986 34.871 39.5062 34.6145L39.2164 34.3991L30.6478 27.3437C29.4096 26.3284 30.4373 24.4017 31.9009 24.7434V24.741ZM52 22.9678C52 24.9217 50.3408 26.4324 48.4339 26.2962L48.1144 26.259L37.1659 24.4339C35.6008 24.1739 35.5141 22.0367 36.9034 21.5662L37.1659 21.5018L48.1144 19.6766C48.5927 19.5967 49.0826 19.622 49.5501 19.7508C50.0175 19.8796 50.4513 20.1087 50.8212 20.4222C51.1911 20.7357 51.4881 21.1261 51.6917 21.5662C51.8953 22.0063 52.0005 22.4854 52 22.9703V22.9678ZM44.2239 12.4429C45.1971 14.1269 44.521 16.2591 42.8172 17.0987L42.5052 17.2349L32.1089 21.1303C30.6107 21.6925 29.4591 19.8401 30.4819 18.743L30.6429 18.5919L39.214 11.5341C39.5881 11.2261 40.0248 11.0033 40.4938 10.8812C40.9628 10.7591 41.4528 10.7407 41.9296 10.8272C42.4064 10.9137 42.8587 11.1031 43.2549 11.3821C43.6511 11.6611 43.9818 12.0231 44.2239 12.4429ZM38.9985 0.449508C40.6776 1.42027 41.1605 3.58964 40.1203 5.16961L39.9049 5.45936L32.8494 14.0279C31.8341 15.2661 29.9074 14.2384 30.2491 12.7748L30.311 12.5643L34.2065 2.16568C34.3765 1.71197 34.6432 1.30072 34.9882 0.96054C35.3332 0.620359 35.7482 0.359411 36.2042 0.195844C36.6603 0.0322774 37.1465 -0.0299814 37.629 0.0133975C38.1116 0.0567763 38.5789 0.204751 38.9985 0.447031V0.449508ZM19.1446 31.9078C20.16 30.6696 22.0866 31.6973 21.7449 33.1609L21.683 33.3714L17.7875 43.77C17.6222 44.2086 17.3662 44.6074 17.0364 44.9404C16.7066 45.2735 16.3103 45.5333 15.8734 45.703C15.4364 45.8726 14.9686 45.9482 14.5005 45.925C14.0323 45.9017 13.5743 45.78 13.1564 45.5679C12.7384 45.3558 12.3698 45.0579 12.0747 44.6938C11.7795 44.3297 11.5644 43.9074 11.4434 43.4546C11.3224 43.0018 11.2981 42.5285 11.3723 42.0657C11.4464 41.6029 11.6173 41.1609 11.8737 40.7685L12.0866 40.4788L19.1446 31.9078ZM21.5096 27.1926L21.3462 27.3437L12.7776 34.4016C12.4142 34.6979 11.9925 34.9144 11.5398 35.0368C11.0872 35.1591 10.6138 35.1847 10.1506 35.1118C9.68741 35.039 9.24478 34.8692 8.8516 34.6138C8.45841 34.3583 8.12351 34.0228 7.86873 33.6291C7.61395 33.2355 7.44502 32.7926 7.37296 32.3293C7.3009 31.8659 7.32733 31.3926 7.45052 30.9402C7.57372 30.4878 7.79091 30.0664 8.08793 29.7036C8.38495 29.3408 8.75512 29.0446 9.1743 28.8345L9.48634 28.7008L19.8826 24.8053C21.3809 24.2432 22.5324 26.0956 21.5096 27.1926ZM3.56013 19.6395L3.8796 19.6766L14.8281 21.5018C16.3932 21.7643 16.4799 23.899 15.0906 24.3695L14.8281 24.4339L3.8796 26.259C3.41548 26.3357 2.9404 26.3134 2.48553 26.1935C2.03065 26.0736 1.60629 25.8588 1.24028 25.5633C0.874277 25.2678 0.57491 24.8982 0.361833 24.4788C0.148757 24.0595 0.0267894 23.5998 0.00393836 23.1299C-0.0189127 22.6601 0.057869 22.1907 0.229243 21.7526C0.400617 21.3145 0.662708 20.9177 0.99831 20.588C1.33391 20.2584 1.73544 20.0035 2.17653 19.84C2.61761 19.6765 3.08829 19.6082 3.55766 19.6395H3.56013ZM12.4878 11.3211L12.7776 11.5366L21.3462 18.5919C22.5844 19.6073 21.5567 21.534 20.0931 21.1922L19.8826 21.1303L9.48634 17.2349C9.04774 17.0695 8.64891 16.8136 8.31585 16.4838C7.98278 16.154 7.72296 15.7577 7.55332 15.3208C7.38368 14.8838 7.30803 14.416 7.3313 13.9479C7.35458 13.4797 7.47624 13.0218 7.68838 12.6038C7.90052 12.1858 8.19836 11.8172 8.5625 11.5221C8.92663 11.227 9.34887 11.0119 9.8017 10.8908C10.2545 10.7698 10.7278 10.7456 11.1906 10.8197C11.6534 10.8939 12.0955 11.0647 12.4878 11.3211ZM17.6538 1.85613L17.7875 2.16816L21.683 12.5643C22.2451 14.065 20.3927 15.2141 19.2957 14.1913L19.1446 14.0303L12.0866 5.45936C11.7903 5.096 11.5738 4.67425 11.4514 4.22161C11.3291 3.76897 11.3035 3.29562 11.3764 2.83242C11.4492 2.36923 11.619 1.92661 11.8745 1.53343C12.1299 1.14025 12.4654 0.805347 12.8591 0.550569C13.2527 0.295792 13.6957 0.126864 14.159 0.0548044C14.6223 -0.0172549 15.0956 0.00917375 15.548 0.132366C16.0005 0.255559 16.4218 0.472747 16.7847 0.769764C17.1475 1.06678 17.4436 1.43695 17.6538 1.85613ZM25.997 1.91804C23.9366 1.91804 22.3665 3.76794 22.7058 5.80358L24.5309 16.7519C24.8083 18.4087 27.1857 18.4087 27.4631 16.7519L29.2882 5.80358C29.3681 5.32554 29.3429 4.83584 29.2142 4.36855C29.0856 3.90126 28.8567 3.46761 28.5434 3.09779C28.2302 2.72796 27.8401 2.43084 27.4003 2.2271C26.9606 2.02335 26.4817 1.91789 25.997 1.91804ZM27.4631 29.1837C27.1857 27.527 24.8083 27.527 24.5309 29.1837L22.7058 40.1321C22.6269 40.6096 22.6529 41.0987 22.782 41.5652C22.9111 42.0317 23.1402 42.4645 23.4533 42.8336C23.7665 43.2027 24.1562 43.4993 24.5954 43.7026C25.0347 43.906 25.513 44.0113 25.997 44.0113C26.4811 44.0113 26.9593 43.906 27.3986 43.7026C27.8378 43.4993 28.2275 43.2027 28.5407 42.8336C28.8538 42.4645 29.0829 42.0317 29.212 41.5652C29.3411 41.0987 29.3671 40.6096 29.2882 40.1321L27.4631 29.1837Z" fill="url(#paint0_radial_127_19)"/>
</g>
<path d="M23.4143 44.0859L23.4257 44.0973L23.4375 44.1084C24.3021 44.925 25.3937 45.3051 26.6165 45.3051C27.8622 45.3051 28.9756 44.9322 29.8478 44.1084L29.8491 44.1072C30.7344 43.2685 31.1946 42.2063 31.1946 40.9881V10.8019C31.1946 9.6291 30.8015 8.58839 29.9868 7.76776C29.1457 6.88405 28.0305 6.48501 26.7732 6.48501C26.2888 6.48501 25.7845 6.55087 25.2654 6.67065L25.2554 6.67296L25.2454 6.67546C24.6998 6.81188 24.1934 7.04058 23.7334 7.36056L16.2297 12.3631C14.8898 13.2302 14.1002 14.4649 14.1002 16.0245C14.1002 17.201 14.5371 18.2355 15.3716 19.07C16.1962 19.8946 17.2097 20.3414 18.365 20.3414C19.2961 20.3414 20.1594 20.095 20.8776 19.5363L22.1429 18.6003V40.9881C22.1429 42.1862 22.5704 43.242 23.4143 44.0859Z" fill="black" stroke="white" stroke-width="2.26241"/>
<defs>
<radialGradient id="paint0_radial_127_19" cx="0" cy="0" r="1" gradientUnits="userSpaceOnUse" gradientTransform="translate(26 22.9645) rotate(90) scale(22.9645 26)">
<stop stop-color="#AAAAAA"/>
<stop offset="1"/>
</radialGradient>
</defs>
</svg>
